<?xml version="1.0" encoding="UTF-8" standalone="no"?>
<svg
   viewBox="0 0 576 512"
   version="1.1"
   id="svg19"
   sodipodi:docname="star.svg"
   inkscape:version="1.1.1 (3bf5ae0d25, 2021-09-20)"
   xmlns:inkscape="http://www.inkscape.org/namespaces/inkscape"
   xmlns:sodipodi="http://sodipodi.sourceforge.net/DTD/sodipodi-0.dtd"
   xmlns="http://www.w3.org/2000/svg"
   xmlns:svg="http://www.w3.org/2000/svg">
  <defs
     id="defs23" />
  <sodipodi:namedview
     id="namedview21"
     pagecolor="#ffffff"
     bordercolor="#111111"
     borderopacity="1"
     inkscape:pageshadow="0"
     inkscape:pageopacity="0"
     inkscape:pagecheckerboard="1"
     showgrid="false"
     inkscape:zoom="1.6582031"
     inkscape:cx="169.15901"
     inkscape:cy="266.85512"
     inkscape:window-width="1920"
     inkscape:window-height="1057"
     inkscape:window-x="-8"
     inkscape:window-y="-8"
     inkscape:window-maximized="1"
     inkscape:current-layer="svg19" />
  <!-- Font Awesome Free 5.15.4 by @fontawesome - https://fontawesome.com License - https://fontawesome.com/license/free (Icons: CC BY 4.0, Fonts: SIL OFL 1.1, Code: MIT License) -->
  <path
     d="M259.3 17.8L194 150.2 47.9 171.5c-26.2 3.8-36.7 36.1-17.7 54.6l105.7 103-25 145.5c-4.5 26.3 23.2 46 46.4 33.7L288 439.6l130.7 68.7c23.2 12.2 50.9-7.4 46.4-33.7l-25-145.5 105.7-103c19-18.5 8.5-50.8-17.7-54.6L382 150.2 316.7 17.8c-11.7-23.6-45.6-23.9-57.4 0z"
     id="path17" />
  <path
     style="fill:#ffc300;stroke:none;stroke-width:0.603062;fill-opacity:1;stroke-opacity:1"
     d="m 138.1013,511.36894 c -15.36959,-2.35114 -27.14019,-15.64169 -27.13676,-30.64095 6e-4,-3.2557 3.71698,-26.22657 12.6486,-78.18382 l 12.64754,-73.57362 -5.86415,-5.79681 c -3.22528,-3.18824 -27.30475,-26.6804 -53.509944,-52.2048 -26.205193,-25.5244 -48.405384,-47.3107 -49.333759,-48.41401 -4.112761,-4.88774 -6.493382,-11.97859 -6.487298,-19.32289 0.01118,-13.49289 8.071897,-25.11538 20.701157,-29.84832 1.719488,-0.6444 32.857325,-5.45178 77.708554,-11.99745 l 74.83939,-10.92219 21.24687,-43.11897 c 46.85601,-95.090821 45.76343,-92.937488 48.93657,-96.447852 6.25139,-6.9157684 14.07821,-10.37723492 23.46424,-10.37723492 9.38564,0 17.24715,3.47654202 23.43206,10.36219792 3.40941,3.795703 1.13253,-0.649751 40.2947,78.672549 l 30.07151,60.90931 73.11029,10.65096 c 40.21065,5.85804 74.43619,10.9501 76.05674,11.31571 5.17339,1.16715 10.48177,4.1358 14.46773,8.09093 5.47267,5.43034 8.23239,11.22404 9.6978,20.35931 0.92767,5.78307 -2.30326,16.27791 -6.67764,21.6906 -0.95668,1.18375 -25.75637,25.56345 -55.11044,54.1771 -47.07064,45.88337 -53.34964,52.21444 -53.18993,53.631 0.0996,0.8834 5.75045,34.03586 12.55743,73.67214 8.88405,51.73076 12.36807,73.34222 12.34701,76.58892 -0.0684,10.54495 -5.38996,19.91209 -14.78997,26.03367 -7.22894,4.70771 -17.38191,6.16509 -25.41941,3.64877 -2.01611,-0.63119 -33.42474,-16.79481 -69.79695,-35.91915 -36.37221,-19.12434 -66.51937,-34.77153 -66.9937,-34.77153 -0.47432,0 -30.39714,15.5325 -66.49515,34.51667 -36.09802,18.98417 -67.39671,35.10264 -69.55266,35.81883 -4.80848,1.59731 -9.4934,2.0705 -13.87043,1.40093 z"
     id="path957" />
</svg>
